Coordinates
version=1
nRows=19
nColumns=36
inDegrees=yes

Units are S.I. units (second, meters, Newtons, ...)
If the header above contains a line with 'inDegrees', this indicates whether rotational values are in degrees (yes) or radians (no).

endheader
time	pelvis_tilt	pelvis_list	pelvis_rotation	pelvis_tx	pelvis_ty	pelvis_tz	hip_flexion_r	hip_adduction_r	hip_rotation_r	knee_angle_r	knee_angle_r_beta	ankle_angle_r	subtalar_angle_r	mtp_angle_r	hip_flexion_l	hip_adduction_l	hip_rotation_l	knee_angle_l	knee_angle_l_beta	ankle_angle_l	subtalar_angle_l	mtp_angle_l	lumbar_extension	lumbar_bending	lumbar_rotation	arm_flex_r	arm_add_r	arm_rot_r	elbow_flex_r	pro_sup_r	arm_flex_l	arm_add_l	arm_rot_l	elbow_flex_l	pro_sup_l
      5.71666670	      0.02906537	      3.20931889	     -2.69410400	      0.48010890	      0.88860361	      0.04929629	     -4.37989031	      6.33293929	     -3.58338985	      0.54752902	      0.00955618	     14.43553610	      2.77814824	     -7.49999987	     36.58187195	     -3.55222533	     -5.24050596	     16.51462065	      0.28823451	     -5.02898550	     -2.17343395	     -7.49999987	     -6.24637288	      3.79597032	      0.72803219	     30.13037369	      0.81431675	     60.33343050	    126.51120685	     93.09084210	     34.56259515	      3.55642956	     64.38949185	    126.47476107	     68.59448159
      5.73333330	     -0.04055415	      3.14427335	     -2.55471657	      0.47562659	      0.89056967	      0.04669105	     -4.10352604	      6.33549949	     -3.86335790	      0.59110840	      0.01031679	     14.16535645	      2.67620233	     -7.49999987	     36.68040822	     -3.47202331	     -5.08296185	     16.29986648	      0.28448634	     -4.74532070	     -1.96133013	     -7.49999987	     -6.49895295	      3.98192082	      0.47754775	     29.89439551	      0.65192272	     60.22630564	    126.73448522	     93.10187926	     34.73320319	      3.39954763	     64.13789295	    126.44850129	     68.61231819
      5.75000000	      0.01974192	      3.12435809	     -2.55304787	      0.47493214	      0.88867826	      0.04676698	     -4.00141241	      6.30556683	     -3.65567820	      0.62702126	      0.01094359	     13.95436947	      2.21342730	     -7.49999987	     36.54692699	     -3.51082212	     -5.11506734	     15.94765474	      0.27833908	     -4.41058416	     -1.43989517	     -7.49999987	     -6.78734294	      4.01348381	      0.17559461	     30.33444466	      0.53005645	     60.22075810	    126.74135509	     86.08976186	     34.98812340	      3.30577847	     63.62254993	    126.42788551	     67.05755432
      5.76666670	     -0.13631391	      3.20118593	     -2.44403712	      0.47537885	      0.89093090	      0.04639135	     -3.75453973	      6.16479769	     -4.12185753	      0.60915286	      0.01063172	     13.94962502	      2.63486080	     -7.49999987	     36.54692737	     -3.36789278	     -5.27987002	     15.55347193	      0.27145930	     -4.37405554	     -1.16149776	     -7.49999987	     -6.83148118	      3.99311274	      0.04151394	     30.29620457	      0.40481833	     59.58691529	    126.72102212	     93.44637393	     34.98460598	      3.29259513	     63.18740053	    126.27464361	     69.86252646
      5.78333330	     -0.30190970	      3.16582078	     -2.44380713	      0.47006228	      0.88843463	      0.04423122	     -3.35620112	      6.12498382	     -4.25657835	      0.67124702	      0.01171547	     13.94300430	      2.57059890	     -7.49999987	     36.68861396	     -3.32684784	     -5.52247232	     15.04045839	      0.26250552	     -4.24415876	     -1.01888361	     -7.49999987	     -6.96060138	      4.12155536	     -0.19961724	     30.60354559	      0.20674493	     59.42896210	    126.78042536	     93.44993753	     35.21864743	      3.42365232	     62.99016339	    126.25124361	     69.85736459
      5.80000000	     -0.33039074	      3.24608552	     -2.28342908	      0.47507637	      0.88889677	      0.04610784	     -3.26764029	      6.03125109	     -4.21282782	      0.71542965	      0.01248660	     14.05010194	      2.56751992	     -7.49999987	     36.62450842	     -3.21692752	     -5.62527469	     14.76661304	      0.25772602	     -4.15383420	     -0.48315048	     -7.49999987	     -7.04674765	      3.95711353	     -0.53456500	     30.60371928	      0.18444532	     59.29784424	    126.81842801	     93.46743575	     35.03575163	      3.46828550	     62.70735198	    126.16367868	     69.86332154
      5.81666670	     -0.39952861	      3.27892295	     -2.19891049	      0.46985494	      0.88876593	      0.04404803	     -3.05927861	      5.97899746	     -4.18454319	      0.70503098	      0.01230511	     14.05346830	      2.58461446	     -7.49999987	     36.82096249	     -3.10235803	     -5.72947998	     14.68362303	      0.25627757	     -4.13440504	     -0.44769073	     -7.49999987	     -7.35820540	      4.04179144	     -0.64254320	     30.55782166	      0.11353046	     59.26840016	    126.81951524	     93.46916966	     35.07858468	      3.44313758	     62.63833172	    126.10717362	     69.86154428
      5.83333330	     -0.54491868	      3.31202804	     -1.92106929	      0.46993683	      0.88844630	      0.04375576	     -2.81031292	      5.92152883	     -4.55803980	      0.74432961	      0.01299100	     14.42205768	      3.10221525	     -7.49999987	     37.09277055	     -2.94960687	     -5.79254236	     14.50974895	      0.25324289	     -4.04926225	      0.55076747	     -7.49999987	     -7.55904140	      4.00821783	     -1.21981818	     30.60532494	      0.21373030	     59.02432181	    127.14793524	     93.93408263	     35.29858088	      3.54511302	     61.83985689	    125.74969046	     70.90490542
      5.85000000	     -0.74410726	      3.24346491	     -1.93281338	      0.46567435	      0.88765728	      0.04713717	     -2.40628587	      6.07986037	     -4.31446275	      0.69222088	      0.01208153	     14.40514319	      3.16899568	     -7.49999987	     37.38052952	     -3.11504719	     -5.54512306	     14.04531816	      0.24513705	     -4.18583405	      0.83369700	     -7.49999987	     -7.94492765	      4.05437996	     -1.19770978	     30.73186786	      0.50106095	     59.01902774	    127.19998135	     93.95077960	     35.73720675	      3.59990179	     61.61084862	    125.57825257	     70.89721663
      5.86666670	     -0.59357149	      3.26773723	     -1.72647347	      0.46638068	      0.88747013	      0.04643746	     -2.21435041	      6.10564585	     -4.23104356	      1.08303863	      0.01890259	     14.21856580	      2.43805267	     -7.49999987	     37.08122280	     -2.94841782	     -5.50056868	     13.41375282	      0.23411415	     -4.13238042	      1.60697017	     -7.49999987	     -8.63017111	      3.98762440	     -1.23245875	     30.88170962	      0.35999771	     58.83225961	    127.43186307	     95.16460963	     36.29725469	      3.69261971	     61.18446763	    124.90457454	     71.45073027
      5.88333330	     -0.58738129	      3.07489267	     -1.58272440	      0.46129423	      0.89224808	      0.04450787	     -1.46566233	      6.28763900	     -4.62035117	      2.10414421	      0.03672424	     14.32538997	      2.03965252	     -7.49999987	     37.05942753	     -2.91564644	     -5.27716949	     12.85196058	      0.22430903	     -4.23190965	      2.05571122	     -7.49999987	     -9.39414553	      4.26838859	     -1.34291370	     31.14118998	      0.12749245	     58.87829042	    127.40420001	     95.11168020	     36.72261671	      3.62979417	     61.00869865	    124.52102929	     71.43527021
      5.90000000	     -0.22184982	      3.13219919	     -1.45264092	      0.46122266	      0.89230849	      0.04434253	     -0.86842607	      6.13782884	     -4.71721992	      3.78316367	      0.06602866	     14.38288259	      1.14020167	     -7.49999987	     36.53862006	     -2.67934763	     -5.24274015	     12.45769333	      0.21742777	     -4.28250361	      2.36418282	     -7.49999987	    -10.51513573	      4.18833299	     -1.51336194	     31.47629990	     -0.15794372	     59.33150289	    127.39565579	     91.49531088	     37.10104808	      3.64278803	     61.08127347	    124.05752079	     70.57859874
      5.91666670	     -0.07586885	      3.14063376	     -1.18106210	      0.46103991	      0.89210523	      0.04362752	      0.02612007	      5.98783735	     -5.27064980	      5.63883492	      0.09841624	     14.77267326	      0.47933662	     -7.49999987	     36.38119248	     -2.38303290	     -4.99729153	     12.26562958	      0.21407562	     -4.26361520	      2.52407135	     -7.49999987	    -11.42861240	      4.28336165	     -1.72149308	     31.74209551	     -0.28032095	     59.75876718	    127.36979944	     91.53150843	     37.65467886	      3.61497220	     61.18197642	    123.58250302	     70.60536502
      5.93333330	     -0.04871856	      3.22539255	     -0.94855296	      0.45571013	      0.88950829	      0.04141906	      1.14633636	      5.72961983	     -5.66695358	      7.49333756	      0.13078341	     15.22988736	     -0.32750964	     -7.49999987	     36.55465612	     -2.04779603	     -4.64589752	     12.26144248	      0.21400254	     -4.26914575	      2.37772775	     -7.49999987	    -12.23628670	      4.24425966	     -2.17958225	     32.25036244	     -0.30256508	     59.80291630	    127.08813252	     92.07007038	     38.50365665	      3.64128989	     61.14608322	    123.00987209	     70.81861370
      5.95000000	     -0.34260949	      3.33656687	     -0.66278142	      0.45523721	      0.88947588	      0.04135468	      2.73748764	      5.43522948	     -6.03840067	      9.65201929	      0.16845952	     15.36926730	     -1.50948908	     -7.49999987	     37.09588032	     -1.65184306	     -4.09829081	     12.24921074	      0.21378906	     -4.27185182	      2.38058574	     -7.49999987	    -12.63605577	      4.24740423	     -2.68040537	     32.59803542	     -0.31568866	     60.16310211	    126.88442556	     90.33139320	     39.21595531	      3.64575949	     61.17425343	    122.37258980	     69.99710859
      5.96666670	     -0.07515510	      3.62342233	     -0.43702834	      0.45540578	      0.89004034	      0.04083518	      3.47485181	      5.02599559	     -5.91698083	     11.38367682	      0.19868264	     15.55308648	     -2.55216613	     -7.49999987	     36.99184506	     -1.16155471	     -3.74834286	     11.95874912	      0.20871955	     -4.60193763	      2.19212350	     -7.49999987	    -13.87076797	      3.99075912	     -3.29544026	     33.52527469	     -0.04584450	     61.28241189	    126.46446604	     90.39276211	     40.38000193	      3.55247525	     61.80531654	    121.98144931	     69.98713201
      5.98333330	     -0.34314637	      3.78895269	     -0.32103440	      0.44970580	      0.88750324	      0.03871501	      5.18504647	      4.67768723	     -5.70094279	     13.80681239	      0.24097434	     15.85878473	     -4.04989487	     -7.49999987	     37.59145959	     -0.75247542	     -3.55965032	     11.85299191	      0.20687374	     -4.80260692	      2.18930856	     -7.49999987	    -14.48186559	      3.99924683	     -3.83279289	     34.20543184	      0.23713285	     61.58217655	    125.92438731	     97.39121404	     40.99696458	      3.59451675	     61.80911647	    121.66210659	     73.33989160
      6.00000000	     -0.74994513	      3.78869934	     -0.09233079	      0.44477663	      0.88447961	      0.03642697	      7.00479198	      4.49875016	     -5.52840434	     15.94077950	      0.27821909	     16.45576693	     -5.25377579	     -7.49999987	     38.42914606	     -0.39500128	     -3.18192598	     11.53675095	      0.20135429	     -4.83823415	      2.23267537	     -7.49999987	    -15.15159115	      4.19396766	     -4.37931260	     34.86917208	      0.37221702	     62.49562016	    125.87701237	     96.41606758	     41.76089818	      3.56783416	     62.12691655	    121.33294559	     72.91017238
      6.01666670	     -1.18069390	      3.72223872	      0.11727275	      0.44478301	      0.87961601	      0.03656589	      9.09284735	      4.41575385	     -5.36659463	     18.56625269	      0.32404224	     17.06795299	     -6.66937092	     -7.49999987	     39.29374433	     -0.15691719	     -2.50627816	     11.24786926	      0.19631235	     -4.50647525	      2.35992520	     -7.49999987	    -15.91988231	      4.41965049	     -4.78282099	     35.38763995	      0.54969895	     63.73974790	    125.66078282	     96.77856246	     42.32849056	      3.41861795	     62.90649007	    121.46048718	     73.07644703
